<mxfile host="app.diagrams.net" modified="2023-07-08T03:23:23.654Z" agent="Mozilla/5.0 (Windows NT 10.0; Win64; x64) AppleWebKit/537.36 (KHTML, like Gecko) Chrome/114.0.0.0 Safari/537.36" etag="lXW6605JcDDnxmI3zTJm" version="21.6.1" type="device">
  <diagram name="Page-1" id="Ag_TeUVElH0Q-f0j7dq3">
    <mxGraphModel dx="1656" dy="661" grid="1" gridSize="10" guides="1" tooltips="1" connect="1" arrows="1" fold="1" page="1" pageScale="1" pageWidth="1169" pageHeight="827" math="0" shadow="0">
      <root>
        <mxCell id="0" />
        <mxCell id="1" parent="0" />
        <mxCell id="52cOh-eb3z9VWPEOuk4D-15" value="" style="rounded=0;whiteSpace=wrap;html=1;fillColor=#fff2cc;strokeColor=#d6b656;" parent="1" vertex="1">
          <mxGeometry x="200" y="376" width="820" height="250" as="geometry" />
        </mxCell>
        <mxCell id="52cOh-eb3z9VWPEOuk4D-11" value="" style="rounded=0;whiteSpace=wrap;html=1;fillColor=#d5e8d4;strokeColor=none;" parent="1" vertex="1">
          <mxGeometry x="20" y="19" width="1050" height="230" as="geometry" />
        </mxCell>
        <mxCell id="52cOh-eb3z9VWPEOuk4D-10" value="" style="rounded=1;whiteSpace=wrap;html=1;fillColor=none;strokeWidth=2;dashed=1;" parent="1" vertex="1">
          <mxGeometry x="20" y="26" width="422.5" height="590" as="geometry" />
        </mxCell>
        <mxCell id="hF4Q5_p2_hIJYnnHA4n_-12" value="" style="rounded=1;whiteSpace=wrap;html=1;fillColor=none;strokeWidth=2;dashed=1;movable=1;resizable=1;rotatable=1;deletable=1;editable=1;locked=0;connectable=1;align=center;" parent="1" vertex="1">
          <mxGeometry x="523" y="326" width="460" height="340" as="geometry" />
        </mxCell>
        <mxCell id="hF4Q5_p2_hIJYnnHA4n_-34" value="" style="rounded=1;whiteSpace=wrap;html=1;fillColor=none;dashed=1;" parent="1" vertex="1">
          <mxGeometry x="264" y="386" width="150" height="120" as="geometry" />
        </mxCell>
        <mxCell id="hF4Q5_p2_hIJYnnHA4n_-26" value="" style="rounded=1;whiteSpace=wrap;html=1;fillColor=none;dashed=1;" parent="1" vertex="1">
          <mxGeometry x="148.5" y="33" width="268.5" height="150" as="geometry" />
        </mxCell>
        <mxCell id="hF4Q5_p2_hIJYnnHA4n_-24" value="" style="rounded=1;whiteSpace=wrap;html=1;fillColor=none;strokeWidth=2;dashed=1;movable=1;resizable=1;rotatable=1;deletable=1;editable=1;locked=0;connectable=1;" parent="1" vertex="1">
          <mxGeometry x="553" y="376" width="370" height="260" as="geometry" />
        </mxCell>
        <mxCell id="52cOh-eb3z9VWPEOuk4D-2" style="edgeStyle=orthogonalEdgeStyle;rounded=0;orthogonalLoop=1;jettySize=auto;html=1;" parent="1" source="hF4Q5_p2_hIJYnnHA4n_-1" target="hF4Q5_p2_hIJYnnHA4n_-5" edge="1">
          <mxGeometry relative="1" as="geometry" />
        </mxCell>
        <mxCell id="hF4Q5_p2_hIJYnnHA4n_-1" value="Str Sync Service" style="image;aspect=fixed;html=1;points=[];align=center;fontSize=12;image=img/lib/azure2/storage/Storage_Sync_Services.svg;" parent="1" vertex="1">
          <mxGeometry x="613" y="421" width="72" height="60" as="geometry" />
        </mxCell>
        <mxCell id="hF4Q5_p2_hIJYnnHA4n_-6" value="Azure file share" style="image;aspect=fixed;html=1;points=[];align=center;fontSize=12;image=img/lib/azure2/storage/Azure_Fileshare.svg;" parent="1" vertex="1">
          <mxGeometry x="782" y="536" width="68" height="68" as="geometry" />
        </mxCell>
        <mxCell id="hF4Q5_p2_hIJYnnHA4n_-7" value="" style="image;aspect=fixed;html=1;points=[];align=center;fontSize=12;image=img/lib/azure2/security/Key_Vaults.svg;" parent="1" vertex="1">
          <mxGeometry x="953" y="300" width="56" height="56" as="geometry" />
        </mxCell>
        <mxCell id="hF4Q5_p2_hIJYnnHA4n_-8" value="" style="verticalLabelPosition=bottom;html=1;verticalAlign=top;align=center;strokeColor=none;fillColor=#00BEF2;shape=mxgraph.azure.enterprise;pointerEvents=1;" parent="1" vertex="1">
          <mxGeometry x="149.72" y="656" width="126.57" height="152" as="geometry" />
        </mxCell>
        <mxCell id="hF4Q5_p2_hIJYnnHA4n_-9" value="WinSrv19 AD" style="image;sketch=0;aspect=fixed;html=1;points=[];align=center;fontSize=12;image=img/lib/mscae/VM_Windows_Non_Azure.svg;" parent="1" vertex="1">
          <mxGeometry x="81" y="130" width="80.98" height="74.5" as="geometry" />
        </mxCell>
        <mxCell id="hF4Q5_p2_hIJYnnHA4n_-10" value="WinSrv22" style="image;sketch=0;aspect=fixed;html=1;points=[];align=center;fontSize=12;image=img/lib/mscae/VM_Windows_Non_Azure.svg;" parent="1" vertex="1">
          <mxGeometry x="214" y="468.75" width="80.98" height="74.5" as="geometry" />
        </mxCell>
        <mxCell id="52cOh-eb3z9VWPEOuk4D-8" style="edgeStyle=orthogonalEdgeStyle;rounded=0;orthogonalLoop=1;jettySize=auto;html=1;" parent="1" source="hF4Q5_p2_hIJYnnHA4n_-11" target="hF4Q5_p2_hIJYnnHA4n_-10" edge="1">
          <mxGeometry relative="1" as="geometry" />
        </mxCell>
        <mxCell id="52cOh-eb3z9VWPEOuk4D-9" style="edgeStyle=orthogonalEdgeStyle;rounded=0;orthogonalLoop=1;jettySize=auto;html=1;entryX=0.008;entryY=0.387;entryDx=0;entryDy=0;entryPerimeter=0;" parent="1" source="hF4Q5_p2_hIJYnnHA4n_-11" target="hF4Q5_p2_hIJYnnHA4n_-9" edge="1">
          <mxGeometry relative="1" as="geometry" />
        </mxCell>
        <mxCell id="hF4Q5_p2_hIJYnnHA4n_-11" value="" style="pointerEvents=1;shadow=0;dashed=0;html=1;strokeColor=none;fillColor=#4495D1;labelPosition=center;verticalLabelPosition=bottom;verticalAlign=top;align=center;outlineConnect=0;shape=mxgraph.veeam.vmware_host;" parent="1" vertex="1">
          <mxGeometry x="40" y="468.7500000000001" width="134.63" height="129.64" as="geometry" />
        </mxCell>
        <mxCell id="hF4Q5_p2_hIJYnnHA4n_-18" value="Azure AD tenant" style="image;aspect=fixed;html=1;points=[];align=center;fontSize=12;image=img/lib/azure2/identity/Azure_Active_Directory.svg;" parent="1" vertex="1">
          <mxGeometry x="597" y="53" width="70" height="64" as="geometry" />
        </mxCell>
        <mxCell id="hF4Q5_p2_hIJYnnHA4n_-30" style="edgeStyle=orthogonalEdgeStyle;rounded=0;orthogonalLoop=1;jettySize=auto;html=1;startArrow=block;startFill=1;" parent="1" source="hF4Q5_p2_hIJYnnHA4n_-19" target="hF4Q5_p2_hIJYnnHA4n_-18" edge="1">
          <mxGeometry relative="1" as="geometry" />
        </mxCell>
        <mxCell id="hF4Q5_p2_hIJYnnHA4n_-19" value="Azure AD sync" style="shape=image;html=1;verticalAlign=top;verticalLabelPosition=bottom;labelBackgroundColor=#ffffff;imageAspect=0;aspect=fixed;image=https://cdn1.iconfinder.com/data/icons/unicons-line-vol-6/24/sync-128.png" parent="1" vertex="1">
          <mxGeometry x="499" y="61" width="48" height="48" as="geometry" />
        </mxCell>
        <mxCell id="hF4Q5_p2_hIJYnnHA4n_-27" value="" style="edgeStyle=orthogonalEdgeStyle;rounded=0;orthogonalLoop=1;jettySize=auto;html=1;startArrow=classic;startFill=1;" parent="1" source="hF4Q5_p2_hIJYnnHA4n_-20" target="hF4Q5_p2_hIJYnnHA4n_-25" edge="1">
          <mxGeometry relative="1" as="geometry" />
        </mxCell>
        <mxCell id="hF4Q5_p2_hIJYnnHA4n_-20" value="Domain controller" style="image;aspect=fixed;perimeter=ellipsePerimeter;html=1;align=center;shadow=0;dashed=0;spacingTop=3;image=img/lib/active_directory/domain_controller.svg;" parent="1" vertex="1">
          <mxGeometry x="182.5" y="40" width="63" height="90" as="geometry" />
        </mxCell>
        <mxCell id="hF4Q5_p2_hIJYnnHA4n_-22" value="" style="group" parent="1" vertex="1" connectable="0">
          <mxGeometry x="783" y="425" width="90" height="70" as="geometry" />
        </mxCell>
        <mxCell id="hF4Q5_p2_hIJYnnHA4n_-5" value="" style="image;aspect=fixed;html=1;points=[];align=center;fontSize=12;image=img/lib/azure2/storage/Storage_Accounts.svg;movable=1;resizable=1;rotatable=1;deletable=1;editable=1;locked=0;connectable=1;" parent="hF4Q5_p2_hIJYnnHA4n_-22" vertex="1">
          <mxGeometry width="65" height="52" as="geometry" />
        </mxCell>
        <mxCell id="hF4Q5_p2_hIJYnnHA4n_-17" value="" style="image;sketch=0;aspect=fixed;html=1;points=[];align=center;fontSize=12;image=img/lib/mscae/Azure_Firewall.svg;movable=1;resizable=1;rotatable=1;deletable=1;editable=1;locked=0;connectable=1;" parent="hF4Q5_p2_hIJYnnHA4n_-22" vertex="1">
          <mxGeometry x="40" y="20" width="50" height="50" as="geometry" />
        </mxCell>
        <mxCell id="hF4Q5_p2_hIJYnnHA4n_-23" value="" style="image;aspect=fixed;html=1;points=[];align=center;fontSize=12;image=img/lib/azure2/general/Resource_Groups.svg;" parent="1" vertex="1">
          <mxGeometry x="893" y="356" width="48" height="45.18" as="geometry" />
        </mxCell>
        <mxCell id="hF4Q5_p2_hIJYnnHA4n_-29" style="edgeStyle=orthogonalEdgeStyle;rounded=0;orthogonalLoop=1;jettySize=auto;html=1;entryX=0;entryY=0.5;entryDx=0;entryDy=0;startArrow=classic;startFill=1;" parent="1" source="hF4Q5_p2_hIJYnnHA4n_-25" target="hF4Q5_p2_hIJYnnHA4n_-19" edge="1">
          <mxGeometry relative="1" as="geometry">
            <mxPoint x="526" y="85" as="targetPoint" />
          </mxGeometry>
        </mxCell>
        <mxCell id="hF4Q5_p2_hIJYnnHA4n_-25" value="Azure AD Connect" style="image;aspect=fixed;html=1;points=[];align=center;fontSize=12;image=img/lib/azure2/app_services/App_Service_Plans.svg;" parent="1" vertex="1">
          <mxGeometry x="317" y="50" width="70" height="70" as="geometry" />
        </mxCell>
        <mxCell id="hF4Q5_p2_hIJYnnHA4n_-32" value="" style="shape=image;verticalLabelPosition=bottom;labelBackgroundColor=default;verticalAlign=top;aspect=fixed;imageAspect=0;image=https://arunpotti.files.wordpress.com/2021/12/microsoft_azure.svg_.png;" parent="1" vertex="1">
          <mxGeometry x="718" y="686" width="70" height="70" as="geometry" />
        </mxCell>
        <mxCell id="52cOh-eb3z9VWPEOuk4D-1" style="edgeStyle=orthogonalEdgeStyle;rounded=0;orthogonalLoop=1;jettySize=auto;html=1;startArrow=classic;startFill=1;" parent="1" source="hF4Q5_p2_hIJYnnHA4n_-33" target="hF4Q5_p2_hIJYnnHA4n_-1" edge="1">
          <mxGeometry relative="1" as="geometry" />
        </mxCell>
        <mxCell id="hF4Q5_p2_hIJYnnHA4n_-33" value="Folder" style="image;aspect=fixed;html=1;points=[];align=center;fontSize=12;image=img/lib/azure2/general/Folder_Blank.svg;" parent="1" vertex="1">
          <mxGeometry x="323" y="406" width="61.61" height="50" as="geometry" />
        </mxCell>
        <mxCell id="52cOh-eb3z9VWPEOuk4D-3" style="edgeStyle=orthogonalEdgeStyle;rounded=0;orthogonalLoop=1;jettySize=auto;html=1;" parent="1" source="hF4Q5_p2_hIJYnnHA4n_-5" target="hF4Q5_p2_hIJYnnHA4n_-6" edge="1">
          <mxGeometry relative="1" as="geometry" />
        </mxCell>
        <mxCell id="52cOh-eb3z9VWPEOuk4D-6" style="edgeStyle=orthogonalEdgeStyle;rounded=0;orthogonalLoop=1;jettySize=auto;html=1;" parent="1" source="52cOh-eb3z9VWPEOuk4D-5" target="hF4Q5_p2_hIJYnnHA4n_-6" edge="1">
          <mxGeometry relative="1" as="geometry" />
        </mxCell>
        <mxCell id="52cOh-eb3z9VWPEOuk4D-5" value="Client" style="verticalLabelPosition=bottom;html=1;verticalAlign=top;align=center;strokeColor=none;fillColor=#00BEF2;shape=mxgraph.azure.computer;pointerEvents=1;" parent="1" vertex="1">
          <mxGeometry x="1039" y="542.1" width="63.22" height="56.9" as="geometry" />
        </mxCell>
        <mxCell id="52cOh-eb3z9VWPEOuk4D-16" value="" style="endArrow=none;html=1;rounded=0;strokeWidth=4;" parent="1" edge="1">
          <mxGeometry width="50" height="50" relative="1" as="geometry">
            <mxPoint x="684" y="286" as="sourcePoint" />
            <mxPoint x="709" y="256" as="targetPoint" />
          </mxGeometry>
        </mxCell>
        <mxCell id="52cOh-eb3z9VWPEOuk4D-17" value="Root" style="text;html=1;strokeColor=none;fillColor=none;align=center;verticalAlign=middle;whiteSpace=wrap;rounded=0;fontSize=14;" parent="1" vertex="1">
          <mxGeometry x="702" y="256" width="50" height="30" as="geometry" />
        </mxCell>
        <mxCell id="52cOh-eb3z9VWPEOuk4D-19" value="Azure AD roles" style="image;aspect=fixed;html=1;points=[];align=center;fontSize=12;image=img/lib/azure2/intune/Azure_AD_Roles_and_Administrators.svg;" parent="1" vertex="1">
          <mxGeometry x="850" y="29" width="50" height="50" as="geometry" />
        </mxCell>
        <mxCell id="52cOh-eb3z9VWPEOuk4D-21" value="Global admin / User Access Admin&lt;br&gt;(elevated access)" style="image;aspect=fixed;html=1;points=[];align=center;fontSize=12;image=img/lib/azure2/identity/Users.svg;" parent="1" vertex="1">
          <mxGeometry x="1083" y="244.09000000000003" width="49.22" height="53.83" as="geometry" />
        </mxCell>
        <mxCell id="52cOh-eb3z9VWPEOuk4D-23" value="" style="endArrow=none;html=1;rounded=0;startArrow=none;startFill=0;endFill=0;targetPerimeterSpacing=0;sourcePerimeterSpacing=21;" parent="1" source="hF4Q5_p2_hIJYnnHA4n_-18" edge="1">
          <mxGeometry width="50" height="50" relative="1" as="geometry">
            <mxPoint x="553" y="409" as="sourcePoint" />
            <mxPoint x="683" y="276" as="targetPoint" />
            <Array as="points">
              <mxPoint x="633" y="276" />
            </Array>
          </mxGeometry>
        </mxCell>
        <mxCell id="52cOh-eb3z9VWPEOuk4D-24" value="" style="endArrow=none;html=1;rounded=0;entryX=-0.016;entryY=0.529;entryDx=0;entryDy=0;entryPerimeter=0;exitX=1;exitY=0.5;exitDx=0;exitDy=0;" parent="1" source="52cOh-eb3z9VWPEOuk4D-17" target="52cOh-eb3z9VWPEOuk4D-21" edge="1">
          <mxGeometry width="50" height="50" relative="1" as="geometry">
            <mxPoint x="553" y="419" as="sourcePoint" />
            <mxPoint x="603" y="369" as="targetPoint" />
          </mxGeometry>
        </mxCell>
        <mxCell id="52cOh-eb3z9VWPEOuk4D-26" value="Contributor" style="image;aspect=fixed;html=1;points=[];align=center;fontSize=12;image=img/lib/azure2/identity/Users.svg;" parent="1" vertex="1">
          <mxGeometry x="288.45" y="389.78" width="28.55" height="31.22" as="geometry" />
        </mxCell>
        <mxCell id="52cOh-eb3z9VWPEOuk4D-27" value="Hybrid Identity Administrator" style="image;aspect=fixed;html=1;points=[];align=center;fontSize=12;image=img/lib/azure2/intune/Azure_AD_Roles_and_Administrators.svg;verticalAlign=bottom;labelPosition=center;verticalLabelPosition=top;" parent="1" vertex="1">
          <mxGeometry x="340" y="36.25" width="35.5" height="35.5" as="geometry" />
        </mxCell>
        <mxCell id="52cOh-eb3z9VWPEOuk4D-28" value="" style="endArrow=none;html=1;rounded=0;entryX=0;entryY=1;entryDx=0;entryDy=0;exitX=0.008;exitY=0.113;exitDx=0;exitDy=0;exitPerimeter=0;" parent="1" source="hF4Q5_p2_hIJYnnHA4n_-7" target="52cOh-eb3z9VWPEOuk4D-17" edge="1">
          <mxGeometry width="50" height="50" relative="1" as="geometry">
            <mxPoint x="653" y="446" as="sourcePoint" />
            <mxPoint x="703" y="396" as="targetPoint" />
            <Array as="points">
              <mxPoint x="702" y="306" />
            </Array>
          </mxGeometry>
        </mxCell>
        <mxCell id="gGQEqmaQ4w11k-E3apjv-1" value="AD Sync Service" style="text;html=1;strokeColor=none;fillColor=none;align=center;verticalAlign=middle;whiteSpace=wrap;rounded=0;fontSize=14;" vertex="1" parent="1">
          <mxGeometry x="499" y="210" width="70" height="34.09" as="geometry" />
        </mxCell>
        <mxCell id="gGQEqmaQ4w11k-E3apjv-2" value="Str Sync Service" style="text;html=1;strokeColor=none;fillColor=none;align=center;verticalAlign=middle;whiteSpace=wrap;rounded=0;fontSize=14;" vertex="1" parent="1">
          <mxGeometry x="442.5" y="584.91" width="70" height="34.09" as="geometry" />
        </mxCell>
      </root>
    </mxGraphModel>
  </diagram>
</mxfile>
